<svg width="32px" height="26px" viewBox="0 0 32 26" version="1.1" xmlns="http://www.w3.org/2000/svg" xmlns:xlink="http://www.w3.org/1999/xlink">
    <!-- Generator: Sketch 61.2 (89653) - https://sketch.com -->
    <title>AG</title>
    <desc>Created with Sketch.</desc>
    <g id="Symbols" stroke="none" stroke-width="1" fill="none" fill-rule="evenodd">
        <g id="header-2-copy-7" transform="translate(-44.000000, -61.000000)" fill-rule="nonzero">
            <g id="header-2">
                <g id="header">
                    <g id="B." transform="translate(44.448000, 61.800000)">
                        <text id="AG" font-family="Helvetica-Bold, Helvetica" font-size="18" font-weight="bold" fill="#282642">
                            <tspan x="0" y="18">AG</tspan>
                        </text>
                        <path d="M30.42,25.2 C30.684,25.2 30.9,25.11 31.068,24.93 C31.236,24.75 31.32,24.54 31.32,24.3 L31.32,24.3 L31.32,19.548 C31.32,19.284 31.236,19.062 31.068,18.882 C30.9,18.702 30.684,18.612 30.42,18.612 L30.42,18.612 L25.668,18.612 C25.404,18.612 25.182,18.702 25.002,18.882 C24.822,19.062 24.732,19.284 24.732,19.548 L24.732,19.548 L24.732,24.3 C24.732,24.564 24.822,24.78 25.002,24.948 C25.182,25.116 25.404,25.2 25.668,25.2 L25.668,25.2 L30.42,25.2 Z" id="." fill="#FF4C60"></path>
                    </g>
                </g>
            </g>
        </g>
    </g>
</svg>
